<svg width="93" height="73" viewBox="0 0 93 73" fill="none" xmlns="http://www.w3.org/2000/svg">
<path d="M89.1562 0.40625H3.84375C2.02881 0.40625 0.5625 1.87256 0.5625 3.6875V69.3125C0.5625 71.1274 2.02881 72.5938 3.84375 72.5938H89.1562C90.9712 72.5938 92.4375 71.1274 92.4375 69.3125V3.6875C92.4375 1.87256 90.9712 0.40625 89.1562 0.40625ZM80.8711 11.5728L48.52 36.7461C47.7202 37.3716 46.6025 37.3716 45.8027 36.7461L13.4414 11.5728C13.3194 11.4786 13.2299 11.3487 13.1855 11.2011C13.1411 11.0535 13.144 10.8958 13.1937 10.7499C13.2435 10.6041 13.3376 10.4775 13.4629 10.3878C13.5882 10.2982 13.7385 10.25 13.8926 10.25H80.4199C80.574 10.25 80.7243 10.2982 80.8496 10.3878C80.9749 10.4775 81.069 10.6041 81.1188 10.7499C81.1685 10.8958 81.1714 11.0535 81.127 11.2011C81.0826 11.3487 80.9931 11.4786 80.8711 11.5728Z" fill="white"/>
</svg>
