<svg width="77" height="77" viewBox="0 0 77 77" fill="none" xmlns="http://www.w3.org/2000/svg">
<path d="M14.0597 0C6.27126 0 0 6.27126 0 14.0597V62.9403C0 70.7288 6.27126 77.0001 14.0597 77.0001H40.5526V46.8979H32.5927V36.0601H40.5526V26.8008C40.5526 19.5263 45.2557 12.847 56.0897 12.847C60.4763 12.847 63.72 13.2681 63.72 13.2681L63.4649 23.3888C63.4649 23.3888 60.1567 23.3576 56.5469 23.3576C52.64 23.3576 52.0135 25.1577 52.0135 28.146V36.0602H63.7752L63.2627 46.8979H52.0135V77.0002H62.9403C70.7287 77.0002 77 70.7289 77 62.9404V14.0598C77 6.27134 70.7287 7.7e-05 62.9403 7.7e-05H14.0597L14.0597 0Z" fill="white"/>
</svg>
