<svg width="80" height="80" viewBox="0 0 80 80" fill="none" xmlns="http://www.w3.org/2000/svg">
<path d="M40 6.66666C21.59 6.66666 6.66669 21.59 6.66669 40C6.66669 58.41 21.59 73.3333 40 73.3333C58.41 73.3333 73.3334 58.41 73.3334 40C73.3334 21.59 58.41 6.66666 40 6.66666Z" stroke="white" stroke-width="3" stroke-linecap="round" stroke-linejoin="round"/>
<path d="M14.2367 61.1533C14.2367 61.1533 21.6667 51.6667 40 51.6667C58.3333 51.6667 65.7667 61.1533 65.7667 61.1533" stroke="white" stroke-width="3" stroke-linecap="round" stroke-linejoin="round"/>
<path d="M40 40C42.6522 40 45.1957 38.9464 47.0711 37.0711C48.9464 35.1957 50 32.6522 50 30C50 27.3478 48.9464 24.8043 47.0711 22.9289C45.1957 21.0536 42.6522 20 40 20C37.3478 20 34.8043 21.0536 32.9289 22.9289C31.0536 24.8043 30 27.3478 30 30C30 32.6522 31.0536 35.1957 32.9289 37.0711C34.8043 38.9464 37.3478 40 40 40V40Z" stroke="white" stroke-width="3" stroke-linecap="round" stroke-linejoin="round"/>
</svg>
