<svg width="80" height="80" viewBox="0 0 80 80" fill="none" xmlns="http://www.w3.org/2000/svg">
<path d="M40 26.9824C32.832 26.9824 26.9824 32.832 26.9824 40C26.9824 47.1679 32.832 53.0176 40 53.0176C47.168 53.0176 53.0176 47.1679 53.0176 40C53.0176 32.832 47.168 26.9824 40 26.9824ZM79.043 40C79.043 34.6094 79.0918 29.2676 78.7891 23.8867C78.4863 17.6367 77.0606 12.0898 72.4902 7.51951C67.9102 2.93943 62.3731 1.52341 56.1231 1.22068C50.7324 0.917944 45.3906 0.966772 40.0098 0.966772C34.6191 0.966772 29.2773 0.917944 23.8965 1.22068C17.6465 1.52341 12.0996 2.94919 7.5293 7.51951C2.94922 12.0996 1.53321 17.6367 1.23047 23.8867C0.92774 29.2773 0.976568 34.6191 0.976568 40C0.976568 45.3808 0.92774 50.7324 1.23047 56.1133C1.53321 62.3633 2.95899 67.9101 7.5293 72.4804C12.1094 77.0605 17.6465 78.4765 23.8965 78.7793C29.2871 79.082 34.6289 79.0332 40.0098 79.0332C45.4004 79.0332 50.7422 79.082 56.1231 78.7793C62.3731 78.4765 67.9199 77.0508 72.4902 72.4804C77.0703 67.9004 78.4863 62.3633 78.7891 56.1133C79.1016 50.7324 79.043 45.3906 79.043 40ZM40 60.0293C28.916 60.0293 19.9707 51.084 19.9707 40C19.9707 28.916 28.916 19.9707 40 19.9707C51.084 19.9707 60.0293 28.916 60.0293 40C60.0293 51.084 51.084 60.0293 40 60.0293ZM60.8496 23.8281C58.2617 23.8281 56.1719 21.7383 56.1719 19.1504C56.1719 16.5625 58.2617 14.4726 60.8496 14.4726C63.4375 14.4726 65.5274 16.5625 65.5274 19.1504C65.5281 19.7649 65.4077 20.3735 65.1729 20.9414C64.938 21.5092 64.5935 22.0252 64.159 22.4597C63.7245 22.8943 63.2085 23.2388 62.6406 23.4736C62.0727 23.7084 61.4641 23.8289 60.8496 23.8281Z" fill="white"/>
</svg>
