<svg width="63" height="59" viewBox="0 0 63 59" fill="none" xmlns="http://www.w3.org/2000/svg">
<g clip-path="url(#clip0_5_23)">
<path d="M45.6073 38.1435C49.3519 33.2712 51.0291 27.2303 50.3033 21.2295C49.5775 15.2287 46.5023 9.71044 41.6928 5.7788C36.8833 1.84715 30.6944 -0.207958 24.3641 0.0246247C18.0338 0.257207 12.029 2.76033 7.55109 7.0332C3.07318 11.3061 0.452364 17.0336 0.212976 23.0699C-0.0264113 29.1062 2.13328 35.006 6.25998 39.5892C10.3867 44.1723 16.1761 47.1007 22.4699 47.7885C28.7636 48.4763 35.0977 46.8727 40.2048 43.2986H40.201C40.317 43.4461 40.4407 43.5863 40.58 43.7227L55.4687 57.9196C56.1939 58.6115 57.1776 59.0004 58.2034 59.0008C59.2293 59.0011 60.2133 58.6129 60.9389 57.9214C61.6646 57.23 62.0724 56.292 62.0728 55.3138C62.0732 54.3356 61.666 53.3974 60.9408 52.7054L46.0521 38.5086C45.9138 38.3751 45.7651 38.2519 45.6073 38.1398V38.1435ZM46.6051 23.9688C46.6051 26.6321 46.0549 29.2694 44.986 31.7301C43.9171 34.1907 42.3504 36.4265 40.3753 38.3098C38.4003 40.1931 36.0555 41.687 33.4749 42.7062C30.8944 43.7254 28.1286 44.25 25.3354 44.25C22.5422 44.25 19.7764 43.7254 17.1958 42.7062C14.6153 41.687 12.2705 40.1931 10.2954 38.3098C8.32037 36.4265 6.75366 34.1907 5.68475 31.7301C4.61585 29.2694 4.0657 26.6321 4.0657 23.9688C4.0657 18.5898 6.3066 13.4312 10.2954 9.62775C14.2843 5.82427 19.6943 3.68751 25.3354 3.68751C30.9765 3.68751 36.3865 5.82427 40.3753 9.62775C44.3642 13.4312 46.6051 18.5898 46.6051 23.9688Z" fill="#289672"/>
</g>
<path d="M28.4606 21.3676C30.6346 21.3676 31.9724 18.3379 31.9724 16.4243C31.9724 14.8297 31.1363 12.9162 29.464 12.9162C27.29 12.9162 25.9521 15.946 25.9521 17.8595C25.9521 19.4541 26.7883 21.3676 28.4606 21.3676ZM22.1058 21.3676C23.7781 21.3676 24.6143 19.4541 24.6143 17.8595C24.6143 15.7865 23.2764 12.7568 21.1024 12.7568C19.4301 12.7568 18.594 14.6703 18.594 16.2649C18.4267 18.3379 19.7646 21.3676 22.1058 21.3676ZM34.4809 19.773C32.3069 19.773 30.8018 22.6433 30.8018 24.7162C30.8018 26.1514 31.4708 27.5865 32.9758 27.5865C35.1498 27.5865 36.6549 24.7162 36.6549 22.6433C36.6549 21.2081 35.8188 19.773 34.4809 19.773ZM19.9318 24.7162C19.9318 22.6433 18.2595 19.773 16.2527 19.773C14.7477 19.773 14.0787 21.2081 14.0787 22.6433C14.0787 24.7162 15.751 27.5865 17.7578 27.5865C19.2629 27.5865 19.9318 26.1514 19.9318 24.7162ZM25.2832 24.3973C21.9386 24.3973 17.4234 29.5 17.4234 33.0081C17.4234 34.6027 18.594 35.0811 19.9318 35.0811C21.9386 35.0811 23.4437 33.8054 25.2832 33.8054C26.9555 33.8054 28.4606 35.0811 30.3001 35.0811C31.638 35.0811 33.1431 34.7622 33.1431 33.0081C33.1431 29.5 28.6278 24.3973 25.2832 24.3973Z" fill="#289672"/>
<defs>
<clipPath id="clip0_5_23">
<rect width="61.8755" height="59" fill="white" transform="translate(0.198547)"/>
</clipPath>
</defs>
</svg>
